<svg width="117" height="119" viewBox="0 0 117 119" fill="none" xmlns="http://www.w3.org/2000/svg">
<rect y="2" width="117" height="117" rx="10" fill="#77C6CB"/>
<path d="M24.3408 68.184C24.3408 69.648 24.2088 70.656 23.9448 71.208C23.6808 71.736 23.1888 72 22.4688 72H8.17678V46.8H23.9448V50.616H13.7208V57.096H22.2168V60.912H13.7208V68.184H24.3408ZM51.1813 46.8C52.4293 50.712 53.3173 54.588 53.8453 58.428C54.3733 62.244 54.6253 66.768 54.6013 72H48.9853V70.56C48.9853 66.384 48.8893 63 48.6973 60.408C48.5053 57.792 48.1573 55.176 47.6533 52.56C46.6693 55.344 45.8773 57.78 45.2773 59.868C44.6773 61.956 44.0053 64.68 43.2613 68.04H38.8693C38.1973 64.728 37.5733 62.028 36.9973 59.94C36.4453 57.852 35.6773 55.416 34.6933 52.632C34.1893 55.32 33.8293 58.044 33.6133 60.804C33.4213 63.54 33.2893 67.272 33.2173 72H27.7453C27.8173 66.672 28.1053 62.1 28.6093 58.284C29.1373 54.468 29.9893 50.64 31.1653 46.8H37.3573C38.5093 49.92 39.3253 52.272 39.8053 53.856C40.2853 55.416 40.6933 57.108 41.0293 58.932C41.4613 57.108 41.9293 55.404 42.4333 53.82C42.9613 52.236 43.8133 49.896 44.9893 46.8H51.1813ZM74.2106 72C73.8506 69.432 73.5026 67.356 73.1666 65.772H63.3746C63.0386 67.356 62.6906 69.432 62.3306 72H56.9306C57.8426 63.288 60.6986 54.888 65.4986 46.8H71.0786C75.8546 54.84 78.6986 63.24 79.6106 72H74.2106ZM72.3026 61.812C71.2946 57.852 69.9506 54.216 68.2706 50.904C66.5906 54.216 65.2466 57.852 64.2386 61.812H72.3026ZM83.6843 46.8H89.2283V72H83.6843V46.8ZM110.67 68.184V72H95.8382V46.8H101.382V68.184H110.67Z" fill="white"/>
</svg>
