<svg width="230" height="208" viewBox="0 0 230 208" fill="none" xmlns="http://www.w3.org/2000/svg">
<path fill-rule="evenodd" clip-rule="evenodd" d="M71 195C96.9574 195 118 173.957 118 148C118 122.043 96.9574 101 71 101C45.0426 101 24 122.043 24 148C24 173.957 45.0426 195 71 195ZM71 198C98.6142 198 121 175.614 121 148C121 120.386 98.6142 98 71 98C43.3858 98 21 120.386 21 148C21 175.614 43.3858 198 71 198Z" fill="#542344"/>
<path fill-rule="evenodd" clip-rule="evenodd" d="M71.5 168C82.8218 168 92 158.822 92 147.5C92 136.178 82.8218 127 71.5 127C60.1782 127 51 136.178 51 147.5C51 158.822 60.1782 168 71.5 168ZM71.5 184C91.6584 184 108 167.658 108 147.5C108 127.342 91.6584 111 71.5 111C51.3416 111 35 127.342 35 147.5C35 167.658 51.3416 184 71.5 184Z" fill="#542344"/>
<path fill-rule="evenodd" clip-rule="evenodd" d="M225.5 168C236.822 168 246 158.822 246 147.5C246 136.178 236.822 127 225.5 127C214.178 127 205 136.178 205 147.5C205 158.822 214.178 168 225.5 168ZM225.5 184C245.658 184 262 167.658 262 147.5C262 127.342 245.658 111 225.5 111C205.342 111 189 127.342 189 147.5C189 167.658 205.342 184 225.5 184Z" fill="#542344"/>
<path fill-rule="evenodd" clip-rule="evenodd" d="M225 195C250.957 195 272 173.957 272 148C272 122.043 250.957 101 225 101C199.043 101 178 122.043 178 148C178 173.957 199.043 195 225 195ZM225 198C252.614 198 275 175.614 275 148C275 120.386 252.614 98 225 98C197.386 98 175 120.386 175 148C175 175.614 197.386 198 225 198Z" fill="#542344"/>
<path fill-rule="evenodd" clip-rule="evenodd" d="M163.749 179.556C166.479 179.97 168.357 182.519 167.944 185.249C167.48 188.306 166.375 193.076 163.475 197.192C160.395 201.564 155.396 205 148 205C140.656 205 135.505 201.614 132.325 197.262C129.301 193.123 128.111 188.225 128.002 184.651C127.919 181.891 130.088 179.586 132.849 179.502C135.609 179.419 137.914 181.588 137.998 184.349C138.056 186.275 138.766 189.127 140.4 191.363C141.878 193.386 144.144 195 148 195C151.804 195 153.889 193.436 155.3 191.433C156.892 189.174 157.686 186.194 158.056 183.751C158.47 181.021 161.019 179.143 163.749 179.556Z" fill="#542344"/>
<path fill-rule="evenodd" clip-rule="evenodd" d="M46 27C48.7614 27 51 24.7614 51 22C51 19.2386 48.7614 17 46 17C43.2386 17 41 19.2386 41 22C41 24.7614 43.2386 27 46 27ZM46 44C58.1503 44 68 34.1503 68 22C68 9.84974 58.1503 0 46 0C33.8497 0 24 9.84974 24 22C24 34.1503 33.8497 44 46 44Z" fill="#542344"/>
<path d="M121 85.5C121 92.4036 115.404 98 108.5 98C101.596 98 96 92.4036 96 85.5C96 78.5964 101.596 73 108.5 73C115.404 73 121 78.5964 121 85.5Z" fill="#542344"/>
<path fill-rule="evenodd" clip-rule="evenodd" d="M101.587 95.317C101.412 95.5306 101.097 95.5617 100.883 95.3866L30.883 37.9866C30.6694 37.8115 30.6383 37.4965 30.8134 37.283C30.9885 37.0694 31.3035 37.0383 31.517 37.2134L101.517 94.6134C101.731 94.7885 101.762 95.1035 101.587 95.317Z" fill="#542344"/>
<path fill-rule="evenodd" clip-rule="evenodd" d="M118.711 79.1113C118.495 79.2832 118.181 79.2473 118.009 79.0312L63.9087 11.0003C63.7368 10.7841 63.7727 10.4696 63.9888 10.2977C64.2049 10.1258 64.5195 10.1617 64.6914 10.3778L118.791 78.4088C118.963 78.6249 118.927 78.9395 118.711 79.1113Z" fill="#542344"/>
<path fill-rule="evenodd" clip-rule="evenodd" d="M98 92L37 42L52.8482 22.6652L113.848 72.6652L98 92Z" fill="#542344"/>
<path fill-rule="evenodd" clip-rule="evenodd" d="M101 89L51 26L66.6658 13.5668L116.666 76.5668L101 89Z" fill="#542344"/>
<path fill-rule="evenodd" clip-rule="evenodd" d="M250 27C247.239 27 245 24.7614 245 22C245 19.2386 247.239 17 250 17C252.761 17 255 19.2386 255 22C255 24.7614 252.761 27 250 27ZM250 44C237.85 44 228 34.1503 228 22C228 9.84974 237.85 0 250 0C262.15 0 272 9.84974 272 22C272 34.1503 262.15 44 250 44Z" fill="#542344"/>
<path d="M175 85.5C175 92.4036 180.596 98 187.5 98C194.404 98 200 92.4036 200 85.5C200 78.5964 194.404 73 187.5 73C180.596 73 175 78.5964 175 85.5Z" fill="#542344"/>
<path fill-rule="evenodd" clip-rule="evenodd" d="M194.413 95.317C194.588 95.5306 194.903 95.5617 195.117 95.3866L265.117 37.9866C265.331 37.8115 265.362 37.4965 265.187 37.283C265.012 37.0694 264.697 37.0383 264.483 37.2134L194.483 94.6134C194.269 94.7885 194.238 95.1035 194.413 95.317Z" fill="#542344"/>
<path fill-rule="evenodd" clip-rule="evenodd" d="M177.289 79.1113C177.505 79.2832 177.819 79.2473 177.991 79.0312L232.091 11.0003C232.263 10.7841 232.227 10.4696 232.011 10.2977C231.795 10.1258 231.481 10.1617 231.309 10.3778L177.209 78.4088C177.037 78.6249 177.073 78.9395 177.289 79.1113Z" fill="#542344"/>
<path fill-rule="evenodd" clip-rule="evenodd" d="M198 92L259 42L243.152 22.6652L182.152 72.6652L198 92Z" fill="#542344"/>
<path fill-rule="evenodd" clip-rule="evenodd" d="M195 89L245 26L229.334 13.5668L179.334 76.5668L195 89Z" fill="#542344"/>
<path fill-rule="evenodd" clip-rule="evenodd" d="M10.5 105C15.7467 105 20 100.747 20 95.5C20 90.2533 15.7467 86 10.5 86C5.25329 86 1 90.2533 1 95.5C1 100.747 5.25329 105 10.5 105ZM10.5 106C16.299 106 21 101.299 21 95.5C21 89.701 16.299 85 10.5 85C4.70101 85 0 89.701 0 95.5C0 101.299 4.70101 106 10.5 106Z" fill="#542344"/>
<path fill-rule="evenodd" clip-rule="evenodd" d="M5.18198 90.182C5.76777 89.5962 6.71751 89.5962 7.3033 90.182L10.4853 93.364L13.6673 90.182C14.253 89.5962 15.2028 89.5962 15.7886 90.182C16.3744 90.7678 16.3744 91.7175 15.7886 92.3033L12.6066 95.4853L15.7886 98.6673C16.3744 99.2531 16.3744 100.203 15.7886 100.789C15.2028 101.374 14.253 101.374 13.6673 100.789L10.4853 97.6066L7.3033 100.789C6.71751 101.374 5.76777 101.374 5.18198 100.789C4.59619 100.203 4.59619 99.2531 5.18198 98.6673L8.36396 95.4853L5.18198 92.3033C4.59619 91.7175 4.59619 90.7678 5.18198 90.182Z" fill="#542344"/>
<path fill-rule="evenodd" clip-rule="evenodd" d="M10.5 207C15.7467 207 20 202.747 20 197.5C20 192.253 15.7467 188 10.5 188C5.25329 188 1 192.253 1 197.5C1 202.747 5.25329 207 10.5 207ZM10.5 208C16.299 208 21 203.299 21 197.5C21 191.701 16.299 187 10.5 187C4.70101 187 0 191.701 0 197.5C0 203.299 4.70101 208 10.5 208Z" fill="#542344"/>
<path fill-rule="evenodd" clip-rule="evenodd" d="M5.18198 192.182C5.76777 191.596 6.71751 191.596 7.3033 192.182L10.4853 195.364L13.6673 192.182C14.253 191.596 15.2028 191.596 15.7886 192.182C16.3744 192.768 16.3744 193.718 15.7886 194.303L12.6066 197.485L15.7886 200.667C16.3744 201.253 16.3744 202.203 15.7886 202.789C15.2028 203.374 14.253 203.374 13.6673 202.789L10.4853 199.607L7.3033 202.789C6.71751 203.374 5.76777 203.374 5.18198 202.789C4.59619 202.203 4.59619 201.253 5.18198 200.667L8.36396 197.485L5.18198 194.303C4.59619 193.718 4.59619 192.768 5.18198 192.182Z" fill="#542344"/>
<path fill-rule="evenodd" clip-rule="evenodd" d="M285.5 207C290.747 207 295 202.747 295 197.5C295 192.253 290.747 188 285.5 188C280.253 188 276 192.253 276 197.5C276 202.747 280.253 207 285.5 207ZM285.5 208C291.299 208 296 203.299 296 197.5C296 191.701 291.299 187 285.5 187C279.701 187 275 191.701 275 197.5C275 203.299 279.701 208 285.5 208Z" fill="#542344"/>
<path fill-rule="evenodd" clip-rule="evenodd" d="M280.182 192.182C280.768 191.596 281.718 191.596 282.303 192.182L285.485 195.364L288.667 192.182C289.253 191.596 290.203 191.596 290.789 192.182C291.374 192.768 291.374 193.718 290.789 194.303L287.607 197.485L290.789 200.667C291.374 201.253 291.374 202.203 290.789 202.789C290.203 203.374 289.253 203.374 288.667 202.789L285.485 199.607L282.303 202.789C281.718 203.374 280.768 203.374 280.182 202.789C279.596 202.203 279.596 201.253 280.182 200.667L283.364 197.485L280.182 194.303C279.596 193.718 279.596 192.768 280.182 192.182Z" fill="#542344"/>
<path fill-rule="evenodd" clip-rule="evenodd" d="M285.5 105C290.747 105 295 100.747 295 95.5C295 90.2533 290.747 86 285.5 86C280.253 86 276 90.2533 276 95.5C276 100.747 280.253 105 285.5 105ZM285.5 106C291.299 106 296 101.299 296 95.5C296 89.701 291.299 85 285.5 85C279.701 85 275 89.701 275 95.5C275 101.299 279.701 106 285.5 106Z" fill="#542344"/>
<path fill-rule="evenodd" clip-rule="evenodd" d="M280.182 90.182C280.768 89.5962 281.718 89.5962 282.303 90.182L285.485 93.364L288.667 90.182C289.253 89.5962 290.203 89.5962 290.789 90.182C291.374 90.7678 291.374 91.7175 290.789 92.3033L287.607 95.4853L290.789 98.6673C291.374 99.2531 291.374 100.203 290.789 100.789C290.203 101.374 289.253 101.374 288.667 100.789L285.485 97.6066L282.303 100.789C281.718 101.374 280.768 101.374 280.182 100.789C279.596 100.203 279.596 99.2531 280.182 98.6673L283.364 95.4853L280.182 92.3033C279.596 91.7175 279.596 90.7678 280.182 90.182Z" fill="#542344"/>
</svg>
