<svg width="270" height="64" viewBox="0 0 270 64" fill="none" xmlns="http://www.w3.org/2000/svg">
<g filter="url(#filter0_d_1_110)">
<mask id="path-1-outside-1_1_110" maskUnits="userSpaceOnUse" x="0" y="0" width="266" height="60" fill="black">
<rect fill="white" width="266" height="60"/>
<path d="M2.84 2H24.12C27.48 3.12 30.3333 5.2 32.68 8.24C35.08 11.2267 36.28 14.9067 36.28 19.28C36.28 26.4267 33.4533 31.68 27.8 35.04L35.88 58H24.68L17.88 37.6H13.64V58H2.84V2ZM13.64 11.6V28.64H20.52C21.4267 28.4267 22.4133 27.52 23.48 25.92C24.6 24.2667 25.16 22.3467 25.16 20.16C25.16 17.9733 24.68 16.0533 23.72 14.4C22.8133 12.7467 21.9067 11.8133 21 11.6H13.64ZM42.0588 58V2H70.7788V11.6H53.0188V24.96H68.8588V34.24H53.0188V48.72H71.0988V58H42.0588ZM77.2931 58V2H100.093C102.706 2.96 105.026 4.64 107.053 7.04C109.08 9.44 110.093 12.3467 110.093 15.76C110.093 21.7867 108.12 26 104.173 28.4V28.72C109.08 31.44 111.533 35.7067 111.533 41.52C111.533 48.1867 108.146 53.68 101.373 58H77.2931ZM88.1731 25.12H96.0931C98.4398 23.68 99.6131 21.4933 99.6131 18.56C99.6131 15.6267 98.5198 13.3067 96.3331 11.6H88.1731V25.12ZM88.1731 48.72H96.4131C97.3731 48.0267 98.2265 46.9333 98.9731 45.44C99.7731 43.9467 100.173 42.4533 100.173 40.96C100.173 39.4667 99.8531 38.1067 99.2131 36.88C98.5731 35.6533 97.7731 34.7467 96.8131 34.16H88.1731V48.72ZM117.371 58V2H146.091V11.6H128.331V24.96H144.171V34.24H128.331V48.72H146.411V58H117.371ZM152.606 58V2H163.566V25.6H163.966L173.966 2H185.246L173.566 28.72L185.806 58H173.646L164.126 33.52H163.566V58H152.606ZM213.477 58L211.797 49.12H199.157L197.477 58H186.597L197.397 2H213.957L224.197 58H213.477ZM205.317 12.4L202.197 31.04L200.437 40.56H210.437L208.597 31.04L205.477 12.4H205.317ZM239.816 58H228.856V2H239.816V24.56H252.616V2H263.576V58H252.616V34.8H239.816V58Z"/>
</mask>
<path d="M2.84 2V-3.8147e-06H0.84V2H2.84ZM24.12 2L24.7525 0.10263L24.4446 -3.8147e-06H24.12V2ZM32.68 8.24L31.0968 9.4621L31.1088 9.47756L31.121 9.49278L32.68 8.24ZM27.8 35.04L26.7782 33.3207L25.3694 34.158L25.9134 35.7039L27.8 35.04ZM35.88 58V60H38.7041L37.7666 57.3361L35.88 58ZM24.68 58L22.7826 58.6325L23.2385 60H24.68V58ZM17.88 37.6L19.7774 36.9675L19.3215 35.6H17.88V37.6ZM13.64 37.6V35.6H11.64V37.6H13.64ZM13.64 58V60H15.64V58H13.64ZM2.84 58H0.84V60H2.84V58ZM13.64 11.6V9.6H11.64V11.6H13.64ZM13.64 28.64H11.64V30.64H13.64V28.64ZM20.52 28.64V30.64H20.7521L20.9781 30.5868L20.52 28.64ZM23.48 25.92L21.8242 24.7983L21.82 24.8044L21.8159 24.8106L23.48 25.92ZM23.72 14.4L21.9664 15.3617L21.9781 15.3831L21.9904 15.4043L23.72 14.4ZM21 11.6L21.4581 9.65316L21.2321 9.6H21V11.6ZM2.84 4H24.12V-3.8147e-06H2.84V4ZM23.4875 3.89736C26.4387 4.88107 28.9715 6.70888 31.0968 9.4621L34.2632 7.01789C31.6951 3.69112 28.5213 1.35893 24.7525 0.10263L23.4875 3.89736ZM31.121 9.49278C33.1958 12.0747 34.28 15.2944 34.28 19.28H38.28C38.28 14.5189 36.9642 10.3786 34.239 6.98721L31.121 9.49278ZM34.28 19.28C34.28 25.7952 31.764 30.3575 26.7782 33.3207L28.8218 36.7593C35.1427 33.0025 38.28 27.0581 38.28 19.28H34.28ZM25.9134 35.7039L33.9934 58.6639L37.7666 57.3361L29.6866 34.3761L25.9134 35.7039ZM35.88 56H24.68V60H35.88V56ZM26.5774 57.3675L19.7774 36.9675L15.9826 38.2325L22.7826 58.6325L26.5774 57.3675ZM17.88 35.6H13.64V39.6H17.88V35.6ZM11.64 37.6V58H15.64V37.6H11.64ZM13.64 56H2.84V60H13.64V56ZM4.84 58V2H0.84V58H4.84ZM11.64 11.6V28.64H15.64V11.6H11.64ZM13.64 30.64H20.52V26.64H13.64V30.64ZM20.9781 30.5868C22.6918 30.1836 24.0494 28.6714 25.1441 27.0294L21.8159 24.8106C21.3364 25.5299 20.9236 26.0178 20.5868 26.3273C20.4214 26.4793 20.2907 26.573 20.1967 26.6286C20.1037 26.6837 20.0596 26.6937 20.0619 26.6932L20.9781 30.5868ZM25.1358 27.0417C26.5014 25.0259 27.16 22.7069 27.16 20.16H23.16C23.16 21.9864 22.6986 23.5074 21.8242 24.7983L25.1358 27.0417ZM27.16 20.16C27.16 17.6721 26.6109 15.3958 25.4496 13.3957L21.9904 15.4043C22.7491 16.7109 23.16 18.2746 23.16 20.16H27.16ZM25.4736 13.4383C24.539 11.734 23.2693 10.0793 21.4581 9.65316L20.5419 13.5468C20.5037 13.5378 20.6368 13.5564 20.9254 13.8536C21.2112 14.1477 21.5644 14.6287 21.9664 15.3617L25.4736 13.4383ZM21 9.6H13.64V13.6H21V9.6ZM42.0588 58H40.0588V60H42.0588V58ZM42.0588 2V-3.8147e-06H40.0588V2H42.0588ZM70.7788 2H72.7788V-3.8147e-06H70.7788V2ZM70.7788 11.6V13.6H72.7788V11.6H70.7788ZM53.0188 11.6V9.6H51.0188V11.6H53.0188ZM53.0188 24.96H51.0188V26.96H53.0188V24.96ZM68.8588 24.96H70.8588V22.96H68.8588V24.96ZM68.8588 34.24V36.24H70.8588V34.24H68.8588ZM53.0188 34.24V32.24H51.0188V34.24H53.0188ZM53.0188 48.72H51.0188V50.72H53.0188V48.72ZM71.0988 48.72H73.0988V46.72H71.0988V48.72ZM71.0988 58V60H73.0988V58H71.0988ZM44.0588 58V2H40.0588V58H44.0588ZM42.0588 4H70.7788V-3.8147e-06H42.0588V4ZM68.7788 2V11.6H72.7788V2H68.7788ZM70.7788 9.6H53.0188V13.6H70.7788V9.6ZM51.0188 11.6V24.96H55.0188V11.6H51.0188ZM53.0188 26.96H68.8588V22.96H53.0188V26.96ZM66.8588 24.96V34.24H70.8588V24.96H66.8588ZM68.8588 32.24H53.0188V36.24H68.8588V32.24ZM51.0188 34.24V48.72H55.0188V34.24H51.0188ZM53.0188 50.72H71.0988V46.72H53.0188V50.72ZM69.0988 48.72V58H73.0988V48.72H69.0988ZM71.0988 56H42.0588V60H71.0988V56ZM77.2931 58H75.2931V60H77.2931V58ZM77.2931 2V-3.8147e-06H75.2931V2H77.2931ZM100.093 2L100.783 0.122657L100.449 -3.8147e-06H100.093V2ZM107.053 7.04L105.525 8.33036L105.525 8.33036L107.053 7.04ZM104.173 28.4L103.134 26.6912L102.173 27.2755V28.4H104.173ZM104.173 28.72H102.173V29.898L103.203 30.4692L104.173 28.72ZM101.373 58V60H101.957L102.449 59.6862L101.373 58ZM88.1731 25.12H86.1731V27.12H88.1731V25.12ZM96.0931 25.12V27.12H96.6578L97.1392 26.8246L96.0931 25.12ZM96.3331 11.6L97.5637 10.0234L97.0212 9.6H96.3331V11.6ZM88.1731 11.6V9.6H86.1731V11.6H88.1731ZM88.1731 48.72H86.1731V50.72H88.1731V48.72ZM96.4131 48.72V50.72H97.0598L97.5841 50.3414L96.4131 48.72ZM98.9731 45.44L97.2102 44.4956L97.1969 44.5204L97.1843 44.5456L98.9731 45.44ZM99.2131 36.88L100.986 35.9549L100.986 35.9549L99.2131 36.88ZM96.8131 34.16L97.856 32.4534L97.3759 32.16H96.8131V34.16ZM88.1731 34.16V32.16H86.1731V34.16H88.1731ZM79.2931 58V2H75.2931V58H79.2931ZM77.2931 4H100.093V-3.8147e-06H77.2931V4ZM99.4035 3.87734C101.651 4.70299 103.693 6.16079 105.525 8.33036L108.581 5.74964C106.36 3.1192 103.762 1.217 100.783 0.122657L99.4035 3.87734ZM105.525 8.33036C107.22 10.3372 108.093 12.775 108.093 15.76H112.093C112.093 11.9183 110.94 8.54278 108.581 5.74964L105.525 8.33036ZM108.093 15.76C108.093 21.3302 106.303 24.764 103.134 26.6912L105.212 30.1088C109.937 27.236 112.093 22.2432 112.093 15.76H108.093ZM102.173 28.4V28.72H106.173V28.4H102.173ZM103.203 30.4692C105.384 31.6779 106.938 33.1815 107.959 34.9569C108.982 36.7361 109.533 38.8995 109.533 41.52H113.533C113.533 38.3272 112.857 35.4505 111.427 32.9631C109.995 30.4719 107.869 28.4821 105.143 26.9708L103.203 30.4692ZM109.533 41.52C109.533 47.3559 106.632 52.2739 100.298 56.3138L102.449 59.6862C109.661 55.0861 113.533 49.0174 113.533 41.52H109.533ZM101.373 56H77.2931V60H101.373V56ZM88.1731 27.12H96.0931V23.12H88.1731V27.12ZM97.1392 26.8246C100.124 24.9931 101.613 22.1338 101.613 18.56H97.6131C97.6131 20.8529 96.7556 22.3669 95.0471 23.4154L97.1392 26.8246ZM101.613 18.56C101.613 15.0517 100.267 12.1336 97.5637 10.0234L95.1026 13.1766C96.7722 14.4797 97.6131 16.2016 97.6131 18.56H101.613ZM96.3331 9.6H88.1731V13.6H96.3331V9.6ZM86.1731 11.6V25.12H90.1731V11.6H86.1731ZM88.1731 50.72H96.4131V46.72H88.1731V50.72ZM97.5841 50.3414C98.8907 49.3977 99.9266 48.0051 100.762 46.3344L97.1843 44.5456C96.5263 45.8615 95.8555 46.6556 95.2421 47.0986L97.5841 50.3414ZM100.736 46.3844C101.671 44.6401 102.173 42.825 102.173 40.96H98.1731C98.1731 42.0817 97.8757 43.2532 97.2102 44.4956L100.736 46.3844ZM102.173 40.96C102.173 39.1707 101.787 37.4895 100.986 35.9549L97.44 37.8051C97.9193 38.7239 98.1731 39.7626 98.1731 40.96H102.173ZM100.986 35.9549C100.217 34.48 99.1899 33.2686 97.856 32.4534L95.7702 35.8666C96.3564 36.2248 96.9295 36.8267 97.44 37.8051L100.986 35.9549ZM96.8131 32.16H88.1731V36.16H96.8131V32.16ZM86.1731 34.16V48.72H90.1731V34.16H86.1731ZM117.371 58H115.371V60H117.371V58ZM117.371 2V-3.8147e-06H115.371V2H117.371ZM146.091 2H148.091V-3.8147e-06H146.091V2ZM146.091 11.6V13.6H148.091V11.6H146.091ZM128.331 11.6V9.6H126.331V11.6H128.331ZM128.331 24.96H126.331V26.96H128.331V24.96ZM144.171 24.96H146.171V22.96H144.171V24.96ZM144.171 34.24V36.24H146.171V34.24H144.171ZM128.331 34.24V32.24H126.331V34.24H128.331ZM128.331 48.72H126.331V50.72H128.331V48.72ZM146.411 48.72H148.411V46.72H146.411V48.72ZM146.411 58V60H148.411V58H146.411ZM119.371 58V2H115.371V58H119.371ZM117.371 4H146.091V-3.8147e-06H117.371V4ZM144.091 2V11.6H148.091V2H144.091ZM146.091 9.6H128.331V13.6H146.091V9.6ZM126.331 11.6V24.96H130.331V11.6H126.331ZM128.331 26.96H144.171V22.96H128.331V26.96ZM142.171 24.96V34.24H146.171V24.96H142.171ZM144.171 32.24H128.331V36.24H144.171V32.24ZM126.331 34.24V48.72H130.331V34.24H126.331ZM128.331 50.72H146.411V46.72H128.331V50.72ZM144.411 48.72V58H148.411V48.72H144.411ZM146.411 56H117.371V60H146.411V56ZM152.606 58H150.606V60H152.606V58ZM152.606 2V-3.8147e-06H150.606V2H152.606ZM163.566 2H165.566V-3.8147e-06H163.566V2ZM163.566 25.6H161.566V27.6H163.566V25.6ZM163.966 25.6V27.6H165.29L165.807 26.3803L163.966 25.6ZM173.966 2V-3.8147e-06H172.641L172.124 1.2197L173.966 2ZM185.246 2L187.078 2.80106L188.303 -3.8147e-06H185.246V2ZM173.566 28.72L171.733 27.9189L171.391 28.7024L171.72 29.4914L173.566 28.72ZM185.806 58V60H188.809L187.651 57.2286L185.806 58ZM173.646 58L171.782 58.7249L172.277 60H173.646V58ZM164.126 33.52L165.99 32.7951L165.494 31.52H164.126V33.52ZM163.566 33.52V31.52H161.566V33.52H163.566ZM163.566 58V60H165.566V58H163.566ZM154.606 58V2H150.606V58H154.606ZM152.606 4H163.566V-3.8147e-06H152.606V4ZM161.566 2V25.6H165.566V2H161.566ZM163.566 27.6H163.966V23.6H163.566V27.6ZM165.807 26.3803L175.807 2.78029L172.124 1.2197L162.124 24.8197L165.807 26.3803ZM173.966 4H185.246V-3.8147e-06H173.966V4ZM183.413 1.19893L171.733 27.9189L175.398 29.5211L187.078 2.80106L183.413 1.19893ZM171.72 29.4914L183.96 58.7714L187.651 57.2286L175.411 27.9486L171.72 29.4914ZM185.806 56H173.646V60H185.806V56ZM175.51 57.2751L165.99 32.7951L162.262 34.2449L171.782 58.7249L175.51 57.2751ZM164.126 31.52H163.566V35.52H164.126V31.52ZM161.566 33.52V58H165.566V33.52H161.566ZM163.566 56H152.606V60H163.566V56ZM213.477 58L211.512 58.3718L211.82 60H213.477V58ZM211.797 49.12L213.762 48.7482L213.454 47.12H211.797V49.12ZM199.157 49.12V47.12H197.5L197.192 48.7482L199.157 49.12ZM197.477 58V60H199.134L199.442 58.3718L197.477 58ZM186.597 58L184.633 57.6213L184.174 60H186.597V58ZM197.397 2V-3.8147e-06H195.746L195.433 1.62126L197.397 2ZM213.957 2L215.924 1.64025L215.624 -3.8147e-06H213.957V2ZM224.197 58V60H226.596L226.164 57.6403L224.197 58ZM205.317 12.4V10.4H203.624L203.344 12.0698L205.317 12.4ZM202.197 31.04L204.164 31.4036L204.167 31.3869L204.169 31.3702L202.197 31.04ZM200.437 40.56L198.47 40.1964L198.033 42.56H200.437V40.56ZM210.437 40.56V42.56H212.86L212.401 40.1805L210.437 40.56ZM208.597 31.04L206.624 31.3702L206.628 31.3949L206.633 31.4195L208.597 31.04ZM205.477 12.4L207.449 12.0698L207.17 10.4H205.477V12.4ZM215.442 57.6282L213.762 48.7482L209.832 49.4918L211.512 58.3718L215.442 57.6282ZM211.797 47.12H199.157V51.12H211.797V47.12ZM197.192 48.7482L195.512 57.6282L199.442 58.3718L201.122 49.4918L197.192 48.7482ZM197.477 56H186.597V60H197.477V56ZM188.561 58.3787L199.361 2.37873L195.433 1.62126L184.633 57.6213L188.561 58.3787ZM197.397 4H213.957V-3.8147e-06H197.397V4ZM211.989 2.35975L222.229 58.3597L226.164 57.6403L215.924 1.64025L211.989 2.35975ZM224.197 56H213.477V60H224.197V56ZM203.344 12.0698L200.224 30.7098L204.169 31.3702L207.289 12.7302L203.344 12.0698ZM200.23 30.6764L198.47 40.1964L202.404 40.9236L204.164 31.4036L200.23 30.6764ZM200.437 42.56H210.437V38.56H200.437V42.56ZM212.401 40.1805L210.561 30.6605L206.633 31.4195L208.473 40.9395L212.401 40.1805ZM210.569 30.7098L207.449 12.0698L203.504 12.7302L206.624 31.3702L210.569 30.7098ZM205.477 10.4H205.317V14.4H205.477V10.4ZM239.816 58V60H241.816V58H239.816ZM228.856 58H226.856V60H228.856V58ZM228.856 2V-3.8147e-06H226.856V2H228.856ZM239.816 2H241.816V-3.8147e-06H239.816V2ZM239.816 24.56H237.816V26.56H239.816V24.56ZM252.616 24.56V26.56H254.616V24.56H252.616ZM252.616 2V-3.8147e-06H250.616V2H252.616ZM263.576 2H265.576V-3.8147e-06H263.576V2ZM263.576 58V60H265.576V58H263.576ZM252.616 58H250.616V60H252.616V58ZM252.616 34.8H254.616V32.8H252.616V34.8ZM239.816 34.8V32.8H237.816V34.8H239.816ZM239.816 56H228.856V60H239.816V56ZM230.856 58V2H226.856V58H230.856ZM228.856 4H239.816V-3.8147e-06H228.856V4ZM237.816 2V24.56H241.816V2H237.816ZM239.816 26.56H252.616V22.56H239.816V26.56ZM254.616 24.56V2H250.616V24.56H254.616ZM252.616 4H263.576V-3.8147e-06H252.616V4ZM261.576 2V58H265.576V2H261.576ZM263.576 56H252.616V60H263.576V56ZM254.616 58V34.8H250.616V58H254.616ZM252.616 32.8H239.816V36.8H252.616V32.8ZM237.816 34.8V58H241.816V34.8H237.816Z" fill="#EBF5EE" mask="url(#path-1-outside-1_1_110)"/>
</g>
<defs>
<filter id="filter0_d_1_110" x="0.840027" y="0" width="268.736" height="64" filterUnits="userSpaceOnUse" color-interpolation-filters="sRGB">
<feFlood flood-opacity="0" result="BackgroundImageFix"/>
<feColorMatrix in="SourceAlpha" type="matrix" values="0 0 0 0 0 0 0 0 0 0 0 0 0 0 0 0 0 0 127 0" result="hardAlpha"/>
<feOffset dx="2" dy="2"/>
<feGaussianBlur stdDeviation="2"/>
<feComposite in2="hardAlpha" operator="out"/>
<feColorMatrix type="matrix" values="0 0 0 0 0 0 0 0 0 0 0 0 0 0 0 0 0 0 1 0"/>
<feBlend mode="normal" in2="BackgroundImageFix" result="effect1_dropShadow_1_110"/>
<feBlend mode="normal" in="SourceGraphic" in2="effect1_dropShadow_1_110" result="shape"/>
</filter>
</defs>
</svg>
